<svg width="30" height="26" viewBox="0 0 30 26" fill="none" xmlns="http://www.w3.org/2000/svg">
<path d="M26.25 3.43149H8.02734L7.85156 2.78809C7.65625 1.96596 7.2168 1.29574 6.5332 0.777447C5.84961 0.259149 5.03906 0 4.10156 0H1.23047C0.878906 0 0.585938 0.107234 0.351562 0.321702C0.117188 0.53617 0 0.822128 0 1.17957C0 1.50128 0.117188 1.76936 0.351562 1.98383C0.585938 2.1983 0.878906 2.30553 1.23047 2.30553H4.10156C4.84375 2.30553 5.27344 2.60936 5.39062 3.21702L8.26172 16.943C8.49609 17.6936 8.95508 18.3013 9.63867 18.766C10.3223 19.2306 11.0742 19.463 11.8945 19.463H23.7305C24.1211 19.463 24.4336 19.3557 24.668 19.1413C24.9023 18.9268 25.0195 18.6587 25.0195 18.337C25.0195 17.5506 24.5898 17.1574 23.7305 17.1574H11.8945C11.3477 17.1574 10.957 16.943 10.7227 16.514L10.6055 16.0315H23.1445C23.9258 16.0315 24.6387 15.817 25.2832 15.3881C25.9277 14.9591 26.3672 14.4051 26.6016 13.726L30 7.13106V6.86298C30 5.89787 29.6387 5.08468 28.916 4.4234C28.1934 3.76213 27.3047 3.43149 26.25 3.43149ZM11.25 13.726H10.1367L8.49609 5.73702H11.25V13.726ZM16.2305 13.726H13.7695V5.73702H16.2305V13.726ZM21.2695 13.726H18.75V5.73702H21.2695V13.726ZM24.375 12.8145V12.9217C24.2578 13.2791 24.043 13.5115 23.7305 13.6187V5.73702H26.25C26.9531 5.73702 27.3633 6.04085 27.4805 6.64851L24.375 12.8145ZM15 22.8945C15 23.5379 14.7559 24.083 14.2676 24.5298C13.7793 24.9766 13.1836 25.2 12.4805 25.2C11.8164 25.2 11.2402 24.9766 10.752 24.5298C10.2637 24.083 10.0195 23.5379 10.0195 22.8945C10.0195 22.2511 10.2637 21.706 10.752 21.2591C11.2402 20.8123 11.8164 20.5889 12.4805 20.5889C13.1836 20.5889 13.7793 20.8123 14.2676 21.2591C14.7559 21.706 15 22.2511 15 22.8945ZM25.0195 22.8945C25.0195 23.5379 24.7754 24.083 24.2871 24.5298C23.7988 24.9766 23.2031 25.2 22.5 25.2C21.7969 25.2 21.2012 24.9766 20.7129 24.5298C20.2246 24.083 19.9805 23.5379 19.9805 22.8945C19.9805 22.2511 20.2246 21.706 20.7129 21.2591C21.2012 20.8123 21.7969 20.5889 22.5 20.5889C23.2031 20.5889 23.7988 20.8123 24.2871 21.2591C24.7754 21.706 25.0195 22.2511 25.0195 22.8945Z" fill="#494949"/>
</svg>
