<svg width="24" height="15" viewBox="0 0 24 15" fill="none" xmlns="http://www.w3.org/2000/svg">
<path d="M23.0774 3.65062L12.6959 14.0631C12.5723 14.1866 12.4384 14.274 12.2942 14.3251C12.15 14.377 11.9956 14.4029 11.8308 14.4029C11.666 14.4029 11.5115 14.377 11.3673 14.3251C11.2231 14.274 11.0892 14.1866 10.9656 14.0631L0.5532 3.65062C0.264824 3.36224 0.120636 3.00177 0.120636 2.56921C0.120636 2.13664 0.275123 1.76587 0.584098 1.4569C0.893072 1.14792 1.25354 0.993437 1.66551 0.993437C2.07747 0.993437 2.43794 1.14792 2.74692 1.4569L11.8308 10.5407L20.9146 1.4569C21.203 1.16852 21.5581 1.02433 21.98 1.02433C22.4026 1.02433 22.7685 1.17882 23.0774 1.4878C23.3864 1.79677 23.5409 2.15724 23.5409 2.56921C23.5409 2.98117 23.3864 3.34164 23.0774 3.65062Z" fill="#9A9A9A"/>
</svg>
