<svg width="35" height="24" viewBox="0 0 35 24" fill="none" xmlns="http://www.w3.org/2000/svg">
<path d="M14 17.1429L23.0825 12L14 6.85714V17.1429ZM34.23 3.72C34.4575 4.52571 34.615 5.60571 34.72 6.97714C34.8425 8.34857 34.895 9.53143 34.895 10.56L35 12C35 15.7543 34.72 18.5143 34.23 20.28C33.7925 21.8229 32.7775 22.8171 31.2025 23.2457C30.38 23.4686 28.875 23.6229 26.565 23.7257C24.29 23.8457 22.2075 23.8971 20.2825 23.8971L17.5 24C10.1675 24 5.6 23.7257 3.7975 23.2457C2.2225 22.8171 1.2075 21.8229 0.77 20.28C0.5425 19.4743 0.385 18.3943 0.28 17.0229C0.1575 15.6514 0.105 14.4686 0.105 13.44L0 12C0 8.24571 0.28 5.48571 0.77 3.72C1.2075 2.17714 2.2225 1.18286 3.7975 0.754286C4.62 0.531429 6.125 0.377143 8.435 0.274285C10.71 0.154285 12.7925 0.102857 14.7175 0.102857L17.5 0C24.8325 0 29.4 0.274286 31.2025 0.754286C32.7775 1.18286 33.7925 2.17714 34.23 3.72Z" fill="#4D95D8"/>
</svg>
